# xmcd
#
# Track frame offsets:
#	150
#	20561
#	33437
#	49362
#	66247
#	80518
#	94834
#
# Disc length: 1323 seconds
#
# Revision: 0
# Processed by: cddbd v1.5.1PL0 Copyright (c) Steve Scherf et al.
# Submitted via: EasyCDDAExtractor 8.1.4.1
#
DISCID=5a052907
DTITLE=Steve Slade - This Would Be Me
DYEAR=2003
DGENRE=Country
TTITLE0=I Believe I Believe
TTITLE1=Family Farm
TTITLE2=Little Scars
TTITLE3=Jenny
TTITLE4=Feels Like a Good Thing
TTITLE5=My Lovely Saskatchewan Rose
TTITLE6=Caanan's Shore
EXTD=
EXTT0=
EXTT1=
EXTT2=
EXTT3=
EXTT4=
EXTT5=
EXTT6=
PLAYORDER=
